<svg id="Layer_1" data-name="Layer 1" xmlns="http://www.w3.org/2000/svg" viewBox="0 0 133.73 133.73"><defs><style>.cls-1{fill:#848484;}.cls-2{fill:none;stroke:#848484;stroke-miterlimit:10;stroke-width:3px;}</style></defs><title>football</title><path class="cls-1" d="M11101.51,2879.64a16,16,0,0,1-3.08-2.48,22,22,0,0,1-.71-12.29,19.65,19.65,0,0,1,1.5-2.48c0.17-.24.33-0.5,0.52-0.74l5.28,3.12v0.13a40.67,40.67,0,0,0,.85,8.43v0l-4.09,6.42Z" transform="translate(-11052.16 -2803.5)"/><path class="cls-1" d="M11117.2,2890.49a20.16,20.16,0,0,0,2.81,1.18,21.93,21.93,0,0,1-11.87-2.87l8.85,1.58Z" transform="translate(-11052.16 -2803.5)"/><path class="cls-1" d="M11117.17,2888.89l-10.44-1.86a32.59,32.59,0,0,1-3.26-4.73c-0.24-.43-0.51-0.84-0.71-1.29l4.09-6.41,0.31,0.08a67.61,67.61,0,0,0,7.78,1.55l0.39,0.05,4.9,8.47q-1.28,1.79-2.59,3.56C11117.49,2888.52,11117.33,2888.71,11117.17,2888.89Z" transform="translate(-11052.16 -2803.5)"/><path class="cls-1" d="M11134.54,2885.28a21.79,21.79,0,0,1-2.64,2.25,20.12,20.12,0,0,0-.79-3.59l5.23-9.76a24.43,24.43,0,0,0,4.12-2.32,1.81,1.81,0,0,0,.42-0.4A21.79,21.79,0,0,1,11134.54,2885.28Z" transform="translate(-11052.16 -2803.5)"/><path class="cls-1" d="M11134.31,2872.63l0.58,1.13-5.05,9.42-0.09,0a46.17,46.17,0,0,1-8.26.8l-5-8.72q1.18-2.19,2.33-4.38c0.52-1,1-2,1.55-3l10.43-1.07A58.21,58.21,0,0,1,11134.31,2872.63Z" transform="translate(-11052.16 -2803.5)"/><path class="cls-1" d="M11132.19,2861.45c-0.49,1.31-1,2.6-1.55,3.9l-10.16,1c-0.12-.16-0.25-0.32-0.38-0.47l-3.61-4.06,0,0-1.46-1.46,2.83-8.52a4,4,0,0,1,.59-0.12c1.54-.16,3.08-0.33,4.62-0.42a22.49,22.49,0,0,1,2.85,0l7,7.89C11132.71,2859.95,11132.47,2860.71,11132.19,2861.45Z" transform="translate(-11052.16 -2803.5)"/><path class="cls-1" d="M11134.54,2854.31a21.79,21.79,0,0,1,4.48,6.49,22.21,22.21,0,0,0-4.18-2.24l-0.7-.26-6.89-7.77a9,9,0,0,0,.08-1A21.8,21.8,0,0,1,11134.54,2854.31Z" transform="translate(-11052.16 -2803.5)"/><path class="cls-1" d="M11112,2849.11l0.06,0a17.51,17.51,0,0,1,4.36,2.3l-2.64,8h0c-0.54.22-1.09,0.42-1.62,0.67a46.62,46.62,0,0,0-6.35,3.43l-5.22-3.09a1.58,1.58,0,0,1,.09-0.48c0.35-.93.69-1.87,1.09-2.79a20.85,20.85,0,0,1,1-2c0.25-.27.51-0.55,0.77-0.81a21.77,21.77,0,0,1,8.52-5.27Z" transform="translate(-11052.16 -2803.5)"/><circle class="cls-2" cx="66.86" cy="66.86" r="65.36"/></svg>