<svg id="Layer_1" data-name="Layer 1" xmlns="http://www.w3.org/2000/svg" viewBox="0 0 133.73 133.73"><defs><style>.cls-1{fill:#848484;}.cls-2{fill:none;stroke:#848484;stroke-miterlimit:10;stroke-width:3px;}</style></defs><title>squash</title><path class="cls-1" d="M10260,3159.66c-6.08-9.29-13.38-13.56-19.54-11.42a13.23,13.23,0,0,0-5.47,3.86c-3.55,4-5,7.39-4.5,10.7,0.63,4.36,4.53,8.42,13.46,14,4,2.49,20.83,6.44,23.51,7.06l8.73,7.76a1.89,1.89,0,1,0,2.52-2.83l-8.44-7.51C10269.47,3179.14,10265.44,3168,10260,3159.66Zm-1.93,1.27,0.52,0.82-2.82,3.17-4.5-4.5,3.46-3.89A40.23,40.23,0,0,1,10258,3160.93Zm-12.85,4-3,3.42-5.38-3,3.68-4.14Zm-3.71-4.91,3.37-3.79,4.28,4.28-2.91,3.27Zm4.92,5.87,5,4-2.2,2.47-5.66-3.2Zm1-1.15,2.79-3.14,4.5,4.5-2.31,2.59Zm6.23-9.32-3.51,3.94-4.28-4.28,3.09-3.48A22.38,22.38,0,0,1,10253.63,3155.39Zm-6.11-4.54-2.77,3.11-3.55-3.55A8.53,8.53,0,0,1,10247.53,3150.85Zm-10.85,2.79a12.05,12.05,0,0,1,3.34-2.71l-0.24.24,3.95,3.95-3.49,3.92-4.85-3.85C10235.79,3154.68,10236.2,3154.17,10236.67,3153.64Zm-3.94,8.83c-0.27-1.84.31-3.81,1.77-6l4.72,3.74-3.84,4.32-2.52-1.43A6,6,0,0,1,10232.73,3162.47Zm1.44,3.39c-0.1-.14-0.18-0.28-0.27-0.42l0.43,0.24Zm1,1.23,0.56-.63,5.38,3-1.44,1.62A29.3,29.3,0,0,1,10235.14,3167.09Zm10,7.74c-1.58-1-3-1.91-4.23-2.8l1.56-1.75,5.66,3.2-1.76,2A9.81,9.81,0,0,1,10245.13,3174.82Zm2.75,1.23,1.61-1.81,8.7,4.92C10254.41,3178.16,10250.54,3177,10247.88,3176.05Zm14.05,3.46-11.4-6.44,2-2.29,9.81,7.79A7.24,7.24,0,0,0,10261.93,3179.51Zm1.37-2.19-9.7-7.7,2.19-2.46,9,9A7.09,7.09,0,0,0,10263.3,3177.33Zm-6.49-11.32,2.57-2.89a99.77,99.77,0,0,1,5.51,11Zm11,15.54h0l0.07-.07v0Z" transform="translate(-10187.28 -3104.22)"/><circle class="cls-2" cx="66.86" cy="66.86" r="65.36"/></svg>