<svg id="Layer_1" data-name="Layer 1" xmlns="http://www.w3.org/2000/svg" viewBox="0 0 133.73 133.73"><defs><style>.cls-1{fill:#848484;}.cls-2{fill:none;stroke:#848484;stroke-miterlimit:10;stroke-width:3px;}</style></defs><title>volleyball</title><path class="cls-1" d="M10255.46,3450l0.87-.64,0.23-.16,0.27,0.06a16.52,16.52,0,0,1,3.86,1.29l0.9,0.43-0.76.64c-6.36,5.35-7.65,10.82-7.86,13.61l0,0.41-0.38.14a6.62,6.62,0,0,1-2.34.41,9.27,9.27,0,0,1-2.92-.51l-0.44-.15v-0.46C10246.82,3463.11,10247.41,3456.14,10255.46,3450Zm-17.06,9a16.4,16.4,0,0,1,9.87-9.21c0.5-.17,1-0.33,1.6-0.46l2.17-.51-1.56,1.59a21.89,21.89,0,0,0-6.47,12.6l-0.13,1-0.87-.59a32.7,32.7,0,0,1-4.47-3.76l-0.31-.31Zm-0.59,11.07-0.07-.25a16.38,16.38,0,0,1-.56-5.86l0.11-1.27,1,0.84c2.39,2.11,7.13,5.64,12,5.64a9.28,9.28,0,0,0,3.9-.84l0.3-.14,0.29,0.17a20.2,20.2,0,0,1,3.87,2.93l0.58,0.57-0.68.44a13.72,13.72,0,0,1-7.21,2h-0.3c-4,0-8.33-1.39-12.94-4.14Zm25,8.9a16.45,16.45,0,0,1-21.25-2.35l-1.92-2,2.62,1a24.39,24.39,0,0,0,8.72,1.75,16.57,16.57,0,0,0,9.48-2.79l0.55-.38,0.35,0.57a17.85,17.85,0,0,1,1.69,3.49l0.17,0.47Zm6-7.47a16.39,16.39,0,0,1-2.54,4.3l-0.66.8-0.43-.95a21.76,21.76,0,0,0-9-9.84l-0.35-.21,0-.41a13.63,13.63,0,0,1,1.58-5l0.27-.52,0.54,0.22c2.57,1.06,7.35,3.93,10.5,11.14l0.11,0.25Zm0-6.61a21.94,21.94,0,0,0-8.55-7.4l-0.77-.36,0.56-.64a25.72,25.72,0,0,1,3.67-3.39l0.42-.32,0.4,0.36a16.35,16.35,0,0,1,5.44,11.36l0.12,2.25Z" transform="translate(-10186.75 -3398.49)"/><circle class="cls-2" cx="66.86" cy="66.86" r="65.36"/></svg>