<svg id="Layer_1" data-name="Layer 1" xmlns="http://www.w3.org/2000/svg" viewBox="0 0 133.73 133.73"><defs><style>.cls-1{fill:#848484;}.cls-2{fill:none;stroke:#848484;stroke-miterlimit:10;stroke-width:3px;}</style></defs><title>weightlifting</title><path class="cls-1" d="M10510.07,3456.18a3.35,3.35,0,0,0-3.35,3.35v11.65a3.35,3.35,0,0,0,6.69,0v-11.65A3.35,3.35,0,0,0,10510.07,3456.18Z" transform="translate(-10469.12 -3398.49)"/><path class="cls-1" d="M10552.92,3452.47a3.35,3.35,0,0,0-3.35,3.35v6.86h-27.18v-6.86a3.35,3.35,0,0,0-6.69,0v19.08a3.35,3.35,0,0,0,6.69,0V3468h27.18v6.86a3.35,3.35,0,0,0,6.69,0v-19.08A3.35,3.35,0,0,0,10552.92,3452.47Z" transform="translate(-10469.12 -3398.49)"/><path class="cls-1" d="M10561.89,3456.18a3.35,3.35,0,0,0-3.35,3.35v11.65a3.35,3.35,0,0,0,6.69,0v-11.65A3.35,3.35,0,0,0,10561.89,3456.18Z" transform="translate(-10469.12 -3398.49)"/><circle class="cls-2" cx="66.86" cy="66.86" r="65.36"/></svg>