<svg id="Layer_1" data-name="Layer 1" xmlns="http://www.w3.org/2000/svg" viewBox="0 0 133.73 133.73"><defs><style>.cls-1{fill:none;stroke:#848484;stroke-miterlimit:10;stroke-width:3px;}.cls-2{fill:#848484;}</style></defs><title>athletics</title><circle class="cls-1" cx="66.86" cy="66.86" r="65.36"/><path class="cls-2" d="M9700.43,2873.15c-2.17,1.37-4.36,2.72-6.54,4.07l-5.3-8.18a2.31,2.31,0,0,0-.2-0.19,68.23,68.23,0,0,0-4-6.15,77.44,77.44,0,0,0,9-.21c3.33-.28,3.36-5.5,0-5.22a81.19,81.19,0,0,1-14.51-.11,2.41,2.41,0,0,0-1.23.19,4.52,4.52,0,0,0-2.45,1.2c-1.78,1.8-1.41,4.22,0,6a68.53,68.53,0,0,1,6,8.84l-8,2.26a2.44,2.44,0,0,0-1.47,1.08,2.77,2.77,0,0,0-.22.27,67.38,67.38,0,0,0-5.22,9.39c-1.37,3,3.12,5.7,4.51,2.63a66.68,66.68,0,0,1,4.73-8.62l11.87-3.37a2.8,2.8,0,0,0,.53-0.21,54.25,54.25,0,0,1,3,5,1.28,1.28,0,0,0,.88.79,2.4,2.4,0,0,0,2.73,0c2.9-1.83,5.83-3.61,8.73-5.44C9706,2875.56,9703.17,2871.43,9700.43,2873.15Z" transform="translate(-9618.36 -2803.5)"/><circle class="cls-2" cx="53.73" cy="50.72" r="3.91"/></svg>