<svg id="Layer_1" data-name="Layer 1" xmlns="http://www.w3.org/2000/svg" viewBox="0 0 133.73 133.73"><defs><style>.cls-1{fill:none;stroke:#848484;stroke-miterlimit:10;stroke-width:3px;}.cls-2{fill:#848484;}</style></defs><title>snooker</title><circle class="cls-1" cx="66.86" cy="66.86" r="65.36"/><path class="cls-2" d="M9970.2,3181.08a4.84,4.84,0,1,0-4.84,4.84A4.84,4.84,0,0,0,9970.2,3181.08Z" transform="translate(-9898.57 -3104.22)"/><path class="cls-2" d="M9983.3,3184l-16.07-27.9a2.07,2.07,0,0,0-3.6,0l-16.07,27.9a2.09,2.09,0,0,0,0,2.11,2.05,2.05,0,0,0,1.79,1h32.13a2.05,2.05,0,0,0,1.79-1A2.09,2.09,0,0,0,9983.3,3184Zm-18.61-27.29a0.86,0.86,0,0,1,1.5,0l1.51,2.62a4.8,4.8,0,0,0-4.45-.11Zm17.56,28.79a0.85,0.85,0,0,1-.74.44h-32.13a0.85,0.85,0,0,1-.74-0.44,0.89,0.89,0,0,1,0-.9l1.66-2.89a4.84,4.84,0,1,0,2.92-5.08l2.49-4.33c0,0.11,0,.21,0,0.32a4.84,4.84,0,1,0,2.15-4l2.71-4.71a4.83,4.83,0,0,0,9.65-.24l3,5.15A4.91,4.91,0,1,0,9975,3172l2.73,4.74a4.84,4.84,0,1,0,2.74,4.75l1.79,3.11A0.89,0.89,0,0,1,9982.24,3185.48Z" transform="translate(-9898.57 -3104.22)"/></svg>