<svg id="Layer_1" data-name="Layer 1" xmlns="http://www.w3.org/2000/svg" viewBox="0 0 133.73 133.73"><defs><style>.cls-1{fill:none;stroke:#848484;stroke-miterlimit:10;stroke-width:3px;}.cls-2{fill:#848484;}</style></defs><title>taekwondo</title><circle class="cls-1" cx="66.86" cy="66.86" r="65.36"/><g id="Layer_1-2" data-name="Layer 1"><path class="cls-2" d="M11139.51,3152.25a2.08,2.08,0,0,0-2.94.16l-12.4,13.84-6.85-5.5,0,0,3.85-6.58a1.74,1.74,0,0,0-2.84-2s-5.94,6.87-6.24,7.55a14.13,14.13,0,0,1-2.26,3.06l-4.41,8.16-0.14.26a2.05,2.05,0,0,0,1.17,2.92l5.21,1.71a1.74,1.74,0,0,0,1.37-3.18l-2.53-1.37,1.67-2.57,7,5.63a4.75,4.75,0,0,0,.61.42l0.93,18.23a2.08,2.08,0,0,0,4.16,0l1-19.31,13.94-18.61A2.09,2.09,0,0,0,11139.51,3152.25Z" transform="translate(-11053.42 -3104.22)"/><path class="cls-2" d="M11111.59,3159.21a5,5,0,1,0-6.12,3.57A5,5,0,0,0,11111.59,3159.21Z" transform="translate(-11053.42 -3104.22)"/></g></svg>