<svg id="Layer_1" data-name="Layer 1" xmlns="http://www.w3.org/2000/svg" viewBox="0 0 133.73 133.73"><defs><style>.cls-1{fill:#848484;}.cls-2{fill:none;stroke:#848484;stroke-miterlimit:10;stroke-width:3px;}</style></defs><title>badminton</title><path class="cls-1" d="M9988.22,2879.79a1.94,1.94,0,0,1,2.7-.4l1.26,1.18s3.25,3-1.47,8.35A6.2,6.2,0,0,1,9985,2891a7.51,7.51,0,0,1-3.29-1.67,1.89,1.89,0,0,1,.19-2.66Z" transform="translate(-9905.12 -2803.5)"/><path class="cls-1" d="M9951.7,2876.35a4.14,4.14,0,0,0,1.88.86l18.76,5.17a11,11,0,0,1,3.66,2l0.71,0.63a2.19,2.19,0,0,0,3-.16l6.38-7a2.16,2.16,0,0,0-.12-3l-0.08-.08a8.47,8.47,0,0,1-2.07-3.53s-5.21-20.53-5.29-20.59a3.26,3.26,0,0,0-6.39,1.3,0.6,0.6,0,0,1-.67.71,3.24,3.24,0,0,0-3.7,3.46,0.9,0.9,0,0,1-.91,1,3.24,3.24,0,0,0-3.2,4.08,0.45,0.45,0,0,1-.53.56,3.24,3.24,0,0,0-3.85,3.73,0.64,0.64,0,0,1-.7.74,3.23,3.23,0,0,0-3.49,4.1,0.47,0.47,0,0,1-.52.59,3.26,3.26,0,0,0-3,.87A3.33,3.33,0,0,0,9951.7,2876.35Zm23.23-14.25a1.28,1.28,0,1,1,2.43-.82l3.91,11.59a1.28,1.28,0,1,1-2.43.82Zm1.21,12.57a1.28,1.28,0,0,1-1.81,0l-8.68-8.39a1.28,1.28,0,1,1,1.78-1.84l8.68,8.39A1.28,1.28,0,0,1,9976.13,2874.67Zm-14-.42a1.28,1.28,0,0,1,1.62-.81l11.61,3.86a1.28,1.28,0,0,1-.4,2.5,1.3,1.3,0,0,1-.4-0.06l-11.61-3.86A1.28,1.28,0,0,1,9962.11,2874.25Z" transform="translate(-9905.12 -2803.5)"/><circle class="cls-2" cx="66.86" cy="66.86" r="65.36"/></svg>