<svg id="Layer_1" data-name="Layer 1" xmlns="http://www.w3.org/2000/svg" viewBox="0 0 133.73 133.73"><defs><style>.cls-1{fill:none;stroke:#848484;stroke-miterlimit:10;stroke-width:3px;}.cls-2{fill:#848484;}</style></defs><title>table tennis</title><circle class="cls-1" cx="66.86" cy="66.86" r="65.36"/><circle class="cls-2" cx="50.74" cy="83.03" r="4.41"/><path class="cls-2" d="M10529.46,3180.67a15.87,15.87,0,0,0,5.27,3.49l20.66-20.66A15.87,15.87,0,1,0,10529.46,3180.67Z" transform="translate(-10476 -3104.22)"/><path class="cls-2" d="M10556.26,3166.41l-18.61,18.61a15.88,15.88,0,0,0,11.66-2.26l6.78,6.78a0.8,0.8,0,0,0,1.13,0l3.55-3.55a0.8,0.8,0,0,0,0-1.13l-6.78-6.78A15.88,15.88,0,0,0,10556.26,3166.41Z" transform="translate(-10476 -3104.22)"/></svg>