<svg id="Layer_1" data-name="Layer 1" xmlns="http://www.w3.org/2000/svg" viewBox="0 0 133.73 133.73"><defs><style>.cls-1{fill:none;stroke:#848484;stroke-miterlimit:10;stroke-width:3px;}.cls-2{fill:#848484;}</style></defs><title>tennis</title><circle class="cls-1" cx="66.86" cy="66.86" r="65.36"/><path class="cls-2" d="M10831.16,3153.62a6.19,6.19,0,0,0,7,0A5.45,5.45,0,0,0,10831.16,3153.62Z" transform="translate(-10764.71 -3104.22)"/><path class="cls-2" d="M10838.17,3143.42a6.18,6.18,0,0,0-7,0A5.45,5.45,0,0,0,10838.17,3143.42Z" transform="translate(-10764.71 -3104.22)"/><path class="cls-2" d="M10830.06,3152.65a6.88,6.88,0,0,1,9.21,0,6.16,6.16,0,0,0,0-8.26,6.88,6.88,0,0,1-9.21,0A6.16,6.16,0,0,0,10830.06,3152.65Z" transform="translate(-10764.71 -3104.22)"/><path class="cls-2" d="M10861.36,3192l-12.83-12.83a3.28,3.28,0,0,0-1.53-.86,19.18,19.18,0,0,1-4-10.14,19.69,19.69,0,0,0-2.89-14.72,7.3,7.3,0,0,1-4.38,2.34l0.63,0.63-2.86,2.85-2.86-2.86,1.14-1.14a7.31,7.31,0,0,1-1.61-1l-0.81.81-2.85-2.86,1.26-1.26a7.3,7.3,0,0,1-.42-2.15l-2.13,2.12-2.86-2.85,2.63-2.63,0.61,0.16,1.81,1.81a7.29,7.29,0,0,1,1.54-3.54c-6.48-2.69-13.48-2-17.92,2.44-6.31,6.31-5.08,17.81,2.74,25.63,5.56,5.56,13,7.77,19.05,6.33a19.09,19.09,0,0,1,10.14,4,3.28,3.28,0,0,0,.86,1.53l12.84,12.83A3.32,3.32,0,1,0,10861.36,3192Zm-20.82-25.69-1.6-1.6,1.69-1.68A14.41,14.41,0,0,1,10840.53,3166.29Zm-0.48,2.09a10.91,10.91,0,0,1-2,3.67l-3.23-3.23,2.86-2.85Zm-2.41-10.69,2.47,2.47c0.05,0.2.11,0.41,0.16,0.61l-2.63,2.63-2.86-2.85Zm-1.29,7-2.86,2.86-2.86-2.86,2.86-2.85Zm-16.57,0-2.86,2.86-2.85-2.85,2.86-2.86Zm-5.71-8.28,2.86-2.86,2.86,2.86-2.86,2.86Zm4.14,4.14,2.86-2.86,2.86,2.86-2.86,2.85Zm7,1.29,2.86,2.85-2.86,2.86-2.86-2.86Zm4.14,4.14,2.86,2.86-2.86,2.85-2.86-2.86Zm2.85-5.43-2.85,2.85-2.86-2.86,2.85-2.85Zm-7-7,2.86,2.86-2.86,2.85-2.86-2.86Zm-1.29-1.29-2.86,2.86-2.86-2.86,2.86-2.85Zm-1.17-7.11-1.69,1.68-1.6-1.6A14.41,14.41,0,0,1,10822.76,3145.15Zm-5.38.56,2.41,2.41-2.85,2.86-3.23-3.23A11,11,0,0,1,10817.38,3145.72Zm-5,3.32,3.23,3.23-2.85,2.86-2.41-2.41A11,11,0,0,1,10812.42,3149Zm-2.52,5.77,1.6,1.6-1.68,1.69A14.32,14.32,0,0,1,10809.9,3154.8Zm0.26,5.52,2.63-2.63,2.85,2.86-2.86,2.85-2.47-2.47C10810.27,3160.73,10810.21,3160.53,10810.16,3160.32Zm4.91,9.08a21.73,21.73,0,0,1-2.48-3.23l0.2-.2,2.85,2.86Zm4.52,3.76a21.61,21.61,0,0,1-3.23-2.48l0.57-.57,2.86,2.86Zm-1.37-4.34,2.86-2.86,2.86,2.86-2.86,2.85Zm6.61,6.61-2.47-2.47,2.86-2.86,2.86,2.86-2.63,2.63Zm2.84,0.5,1.69-1.69,1.6,1.6A14.38,14.38,0,0,1,10827.67,3175.95Zm5.38-.56-2.41-2.41,2.85-2.86,3.23,3.23A10.94,10.94,0,0,1,10833.06,3175.38Zm10.77,3.77a3.21,3.21,0,0,0-.44.55,21.06,21.06,0,0,0-6.46-3,12.94,12.94,0,0,0,4.43-4.43,21,21,0,0,0,3,6.46A3.44,3.44,0,0,0,10843.82,3179.15Z" transform="translate(-10764.71 -3104.22)"/></svg>