<svg id="Layer_1" data-name="Layer 1" xmlns="http://www.w3.org/2000/svg" viewBox="0 0 133.73 133.73"><defs><style>.cls-1{fill:#848484;}.cls-2{fill:none;stroke:#848484;stroke-miterlimit:10;stroke-width:3px;}</style></defs><title>basketball</title><g id="_14" data-name="14"><path class="cls-1" d="M10260.33,2854c0.44-.58.37-1.82,0.31-2.92V2851c-0.62-.06-1.24-0.09-1.88-0.09a19.44,19.44,0,0,0-6.89,1.26,45.4,45.4,0,0,1,6.53,3.87A14,14,0,0,0,10260.33,2854Z" transform="translate(-10191.88 -2803.5)"/><path class="cls-1" d="M10270.21,2865.14a12.91,12.91,0,0,0-2.46.49c3.31,5.79,4.61,13.09,4.92,18.39a19.43,19.43,0,0,0,5.56-12.87C10276,2868.36,10273,2864.83,10270.21,2865.14Z" transform="translate(-10191.88 -2803.5)"/><path class="cls-1" d="M10250.51,2860.15a17.24,17.24,0,0,0,6.26-2.89,41.44,41.44,0,0,0-7.28-4.05,19.57,19.57,0,0,0-8.55,9.23,38.22,38.22,0,0,1,7.19-1.82C10248.92,2860.46,10249.73,2860.31,10250.51,2860.15Z" transform="translate(-10191.88 -2803.5)"/><path class="cls-1" d="M10264,2860.71l0.62,0.64a20.73,20.73,0,0,1,2.08,2.59,13.68,13.68,0,0,1,3.3-.74c3.06-.35,5.77,2.08,8.11,4.74a19.42,19.42,0,0,0-4.81-10.58,27.68,27.68,0,0,0-4.58.94A22.42,22.42,0,0,0,10264,2860.71Z" transform="translate(-10191.88 -2803.5)"/><path class="cls-1" d="M10261.42,2870.78c0.8-2.71,1.73-4.66,3.52-5.93a18.23,18.23,0,0,0-1.75-2.16c-0.29-.31-0.58-0.6-0.88-0.89-7.2,4.9-17.06,13.9-18,21.7a19.45,19.45,0,0,0,11.7,6.16c1.68-3.34,3.26-10.14,4.2-14.18C10260.71,2873.54,10261.1,2871.87,10261.42,2870.78Z" transform="translate(-10191.88 -2803.5)"/><path class="cls-1" d="M10253.26,2866.49a69.54,69.54,0,0,1,7.59-6.06c-0.81-.72-1.62-1.37-2.42-2a19.57,19.57,0,0,1-7.52,3.6c-0.8.17-1.63,0.32-2.42,0.47-3.07.57-6,1.12-8.48,2.5a19.48,19.48,0,0,0,2.75,16.47C10244.18,2875.85,10249.07,2870.35,10253.26,2866.49Z" transform="translate(-10191.88 -2803.5)"/><path class="cls-1" d="M10262.52,2859.32a25.79,25.79,0,0,1,5.62-2.89,28.81,28.81,0,0,1,3.39-.79,19.42,19.42,0,0,0-8.93-4.4,5.93,5.93,0,0,1-.71,3.94,15.18,15.18,0,0,1-1.9,2C10260.82,2857.83,10261.67,2858.54,10262.52,2859.32Z" transform="translate(-10191.88 -2803.5)"/><path class="cls-1" d="M10263.29,2871.33c-0.3,1-.69,2.68-1.13,4.59-1.31,5.64-2.57,10.69-4,13.92l0.63,0a19.41,19.41,0,0,0,12-4.16c-0.13-5.54-1.46-13.38-4.81-19.2C10264.69,2867.46,10264,2869,10263.29,2871.33Z" transform="translate(-10191.88 -2803.5)"/></g><circle class="cls-2" cx="66.86" cy="66.86" r="65.36"/></svg>