<svg id="Layer_1" data-name="Layer 1" xmlns="http://www.w3.org/2000/svg" viewBox="0 0 133.73 133.73"><defs><style>.cls-1{fill:none;stroke:#848484;stroke-miterlimit:10;stroke-width:3px;}.cls-2{fill:#848484;}</style></defs><title>chess</title><circle class="cls-1" cx="66.86" cy="66.86" r="65.36"/><path class="cls-2" d="M10556.64,2883.28h-0.14v-0.51a1.17,1.17,0,0,0-1.17-1.17h-0.55a6.44,6.44,0,0,1,0-2c0.63-2.85,1.41-5.67,2.29-8.45,1.45-4.57,2.33-9.14.88-13.89-1.62-5.3-4.82-9.07-10.27-10.7a2,2,0,0,1-1-.81,11.68,11.68,0,0,0-3-3.43c-0.06.62-.14,1-0.14,1.4,0,0.58,0,1.17.07,1.76a1.06,1.06,0,0,1-1.08,1.37,9.34,9.34,0,0,0-1.46.34c0,1.82,0,1.82-1.65,2.49a12.36,12.36,0,0,0-1.62.68,4.48,4.48,0,0,0-1.07.95,31.81,31.81,0,0,1-2.13,2.52c-1.6,1.48-3.27,2.89-5,4.27-0.73.59-1.28,1.13-.92,2.18a2.27,2.27,0,0,1-.11,1.05,3.88,3.88,0,0,0,1.71,3.41,4.7,4.7,0,0,0,6.07-1.06,2.74,2.74,0,0,1,3.09-.81,9.47,9.47,0,0,0,5.5.55l-0.88.93a41.11,41.11,0,0,0-6.3,7.7,14.1,14.1,0,0,0-2.42,7.42,17.93,17.93,0,0,0,.19,2.15h-0.23a1.17,1.17,0,0,0-1.17,1.17v0.51h-0.14a1.33,1.33,0,0,0-1.33,1.33v5.25H10558v-5.24A1.33,1.33,0,0,0,10556.64,2883.28Z" transform="translate(-10478.64 -2803.5)"/></svg>