<svg id="Layer_1" data-name="Layer 1" xmlns="http://www.w3.org/2000/svg" viewBox="0 0 133.72 133.72"><defs><style>.cls-1{fill:none;stroke:#848484;stroke-miterlimit:10;stroke-width:3px;}.cls-2{fill:#848484;}</style></defs><title>kabaddi</title><circle class="cls-1" cx="66.86" cy="66.86" r="65.36"/><path class="cls-2" d="M255.75,57.59a67.39,67.39,0,0,0,7.83-.18c2.9-.24,2.92-4.78,0-4.54a70.62,70.62,0,0,1-12.62-.1,2.1,2.1,0,0,0-1.07.17" transform="translate(-172.66 0)"/><path class="cls-2" d="M255.75,57.59a67.39,67.39,0,0,0,7.83-.18c2.9-.24,2.92-4.78,0-4.54a70.62,70.62,0,0,1-12.62-.1" transform="translate(-172.66 0)"/><circle class="cls-2" cx="72.39" cy="50.21" r="3.4"/><circle class="cls-2" cx="208.87" cy="62.63" r="2.96" transform="translate(-155.77 166.03) rotate(-45)"/><path class="cls-2" d="M269.7,66.68c-1.89,1.19-3.79,2.37-5.69,3.54L259.4,63.1l-0.17-.17a59.35,59.35,0,0,0-3.48-5.35,67.39,67.39,0,0,0,7.83-.18c2.9-.24,2.92-4.78,0-4.54a70.62,70.62,0,0,1-12.62-.1,2.1,2.1,0,0,0-1.07.17,3.93,3.93,0,0,0-2.13,1,3.53,3.53,0,0,0-.94,1.61h0a62.06,62.06,0,0,1-9.28,6.88c-2.32,1.41.25,4.89,2.55,3.49A60.5,60.5,0,0,0,246,61.83a8.15,8.15,0,0,0,2.12-2.12A59.61,59.61,0,0,1,253,66.89l-7,2a2.12,2.12,0,0,0-1.28.94,2.35,2.35,0,0,0-.19.23A58.6,58.6,0,0,0,240,78.2c-1.19,2.61,2.71,5,3.92,2.29A57.94,57.94,0,0,1,248,73l10.33-2.93a2.43,2.43,0,0,0,.46-0.18,47.1,47.1,0,0,1,2.61,4.35,1.11,1.11,0,0,0,.77.69,2.09,2.09,0,0,0,2.38,0c2.52-1.59,5.07-3.14,7.59-4.73C274.55,68.77,272.09,65.18,269.7,66.68Z" transform="translate(-172.66 0)"/><path class="cls-2" d="M234.16,57.59c-0.43,1.89-.88,3.79-1.32,5.68l-7.21-1.54h-0.21A51.62,51.62,0,0,0,220,60.58a58.62,58.62,0,0,0,4.7-4.93c1.63-1.93-1.14-4.74-2.79-2.79a61.43,61.43,0,0,1-7.82,7.7,1.82,1.82,0,0,0-.56.76,3.42,3.42,0,0,0-.67,2,3.28,3.28,0,0,0,.12.85h0a55.69,55.69,0,0,1-4.52,9.12c-1.21,2,2.17,3.64,3.37,1.65a52.39,52.39,0,0,0,2.89-5.57,7.3,7.3,0,0,0,.8-2.95,4.68,4.68,0,0,0,.56.1A51.87,51.87,0,0,1,224,68l-3.07,5.49a1.85,1.85,0,0,0-.21,1.36,2,2,0,0,0,0,.26A51,51,0,0,0,223,82.94c0.87,2.34,4.72,1.38,3.82-1a50.41,50.41,0,0,1-2.08-7.14l4.55-8.15a2.11,2.11,0,0,0,.17-0.4,41,41,0,0,1,4.28,1.07,1,1,0,0,0,.89,0,1.82,1.82,0,0,0,1.46-1.46c0.57-2.53,1.19-5.05,1.76-7.58C238.43,55.9,234.71,55.21,234.16,57.59Z" transform="translate(-172.66 0)"/><path class="cls-2" d="M214,79.44c0-2,0-3.91,0-5.86,0-1,.45-1.66,1.14-1.66s1.13,0.66,1.13,1.67q0,5.86,0,11.73c0,1-.43,1.59-1.11,1.61S214,86.31,214,85.3C214,83.35,214,81.39,214,79.44Z" transform="translate(-172.66 0)"/></svg>