<svg id="Layer_1" data-name="Layer 1" xmlns="http://www.w3.org/2000/svg" viewBox="0 0 133.72 133.72"><defs><style>.cls-1{fill:none;stroke:#848484;stroke-miterlimit:10;stroke-width:3px;}.cls-2{fill:#848484;}</style></defs><title>kho kho</title><circle class="cls-1" cx="66.86" cy="66.86" r="65.36"/><circle class="cls-2" cx="66.23" cy="51.87" r="3.6"/><path class="cls-2" d="M212.47,232.84c2,1.26,4,2.5,6,3.74l4.87-7.52,0.18-.17a62.75,62.75,0,0,1,3.68-5.66,71.26,71.26,0,0,1-8.28-.19c-3.06-.26-3.09-5.06,0-4.8a74.67,74.67,0,0,0,13.35-.1,2.22,2.22,0,0,1,1.13.17,4.16,4.16,0,0,1,2.25,1.1,3.73,3.73,0,0,1,1,1.71h0a65.62,65.62,0,0,0,9.81,7.27c2.45,1.49-.27,5.17-2.7,3.69a64,64,0,0,1-6.29-4.37,8.62,8.62,0,0,1-2.24-2.24,63,63,0,0,0-5.09,7.59l7.36,2.08a2.24,2.24,0,0,1,1.35,1,2.49,2.49,0,0,1,.2.25,62,62,0,0,1,4.8,8.64c1.26,2.76-2.87,5.24-4.15,2.42a61.27,61.27,0,0,0-4.35-7.93l-10.92-3.1a2.56,2.56,0,0,1-.49-0.19,49.8,49.8,0,0,0-2.76,4.6,1.18,1.18,0,0,1-.81.73,2.21,2.21,0,0,1-2.51,0c-2.67-1.68-5.36-3.32-8-5C207.35,235.05,210,231.26,212.47,232.84Z" transform="translate(-172.31 -163.56)"/><circle class="cls-2" cx="94.29" cy="63.01" r="2.9"/><path class="cls-2" d="M267.32,239.14a2.52,2.52,0,0,0-.72-0.67c-1.12-.79-2.22-1.62-3.37-2.36a2.31,2.31,0,0,1-1.21-1.86,13.63,13.63,0,0,0-.44-2.24,0.86,0.86,0,0,1,.22-0.88,3.3,3.3,0,0,0,.57-3.63,5.17,5.17,0,0,0-2.25-2.3c-1-.62-2.13-1.18-3.21-1.73-3.08-1.58-2.05-1.62-5.78-.65q-2.21.57-4.4,1.22a1.9,1.9,0,0,0-1.42,2,1.78,1.78,0,0,0,2.09,1.35,3,3,0,0,0,.52-0.11c1.59-.43,3.22-0.75,4.76-1.32,1.14-.42,1.83.15,2.75,0.69-2.2.89-4.28,1.75-6.38,2.56a3.78,3.78,0,0,0-2.55,3.53,19,19,0,0,0,.57,4.83,3.91,3.91,0,0,1-.28,2.55c-0.69,1.38-1.27,2.82-1.89,4.24a6.14,6.14,0,0,0-.53,3.2,1.45,1.45,0,0,0,2.43,1.11,4.66,4.66,0,0,0,1.47-1.72c0.16-.3.26-0.48,0.64-0.2a1.43,1.43,0,0,0,1.25.13,4.75,4.75,0,0,0,2.29-1.44c1.23-1.32,2.46-2.65,3.66-4a7.18,7.18,0,0,0,.91-1.31,3.58,3.58,0,0,0,.35-2.79,6.53,6.53,0,0,0-1.94-3.18c0.93-.38,1.8-0.73,2.66-1.09,0.37-.16.45,0,0.51,0.34,0.16,1,.4,1.94.58,2.91a2.07,2.07,0,0,0,.85,1.39l4.9,3.51a2.14,2.14,0,0,0,.68.34,1.53,1.53,0,0,0,1.77-.54A1.56,1.56,0,0,0,267.32,239.14Zm-15.34.41a11.07,11.07,0,0,1-.85.85,7.33,7.33,0,0,0,.49-2.92,0.31,0.31,0,0,1,.11,0C253.06,238.39,253.06,238.39,252,239.55Z" transform="translate(-172.31 -163.56)"/></svg>